#!OML:ASF H:\Not Pregnant\Project 1\Capture day 1\Session 1\non-pregnant.ASF
:FULLY-SPECIFIED
:DEGREES
1681
root -7.94548 15.4164 44.0367 551.697 -113.893 -534.506
lowerback -4.75162 -1.24583 5.44358
upperback -9.41897 -1.90586 1.35652
thorax -7.35169 -1.40719 -1.55812
lowerneck 17.2828 -9.7055 -33.3109
upperneck 0.248992 -21.0465 35.5348
head 5.18292 -12.322 17.5829
rclavicle 1.0635e-014 -7.15625e-015
rhumerus -41.5804 -21.7387 -65.2179
rradius 28.5837
rwrist 23.1804
rhand -6.64861 4.86071
rfingers 7.12502
rthumb 19.2087 -24.2107
lclavicle 1.0635e-014 -7.15625e-015
lhumerus -40.8422 -6.26661 87.909
lradius 46.0504
lwrist 40.0598
lhand -15.7556 -14.5623
lfingers 7.12502
lthumb 10.4359 15.1587
rfemur -36.416 -9.98978 30.2309
rtibia 40.9125
rfoot -21.2371 -2.87505
rtoes -3.81292
lfemur -15.4002 3.14925 -28.4244
ltibia 38.593
lfoot -9.88015 -37.2409
ltoes -44.1778
1682
root -7.95084 15.4254 44.0734 551.975 -113.752 -534.821
lowerback -4.70026 -1.1321 5.64592
upperback -9.43054 -1.75205 1.32005
thorax -7.39403 -1.34783 -1.71011
lowerneck 17.3238 -9.71505 -33.3272
upperneck 0.208109 -21.068 35.5474
head 5.17694 -12.3366 17.5897
rclavicle -6.84813e-014 -1.66979e-014
rhumerus -41.6536 -21.9163 -65.2854
rradius 28.0827
rwrist 23.8501
rhand -6.42043 4.89517
rfingers 7.12502
rthumb 19.4282 -24.1542
lclavicle -6.84813e-014 -1.66979e-014
lhumerus -41.0249 -5.93149 87.6355
lradius 46.2452
lwrist 40.0348
lhand -15.8209 -14.7329
lfingers 7.12502
lthumb 10.373 14.9912
rfemur -36.1998 -10.0082 30.2377
rtibia 40.6761
rfoot -21.2215 -2.7453
rtoes -3.98114
lfemur -15.74 3.31918 -27.6312
ltibia 39.5558
lfoot -11.7331 -36.1529
ltoes -44.9171
1683
root -7.95588 15.4357 44.1106 552.284 -113.582 -535.158
lowerback -4.63655 -1.02153 5.86528
upperback -9.45279 -1.60125 1.28989
thorax -7.45504 -1.29197 -1.8644
lowerneck 17.3505 -9.71302 -33.3541
upperneck 0.173635 -21.0724 35.5625
head 5.17024 -12.342 17.6028
rclavicle 2.73329e-014 1.11319e-014
rhumerus -41.7249 -22.0539 -65.3604
rradius 27.6127
rwrist 24.5368
rhand -6.1559 4.9411
rfingers 7.12502
rthumb 19.6825 -24.0825
lclavicle 2.73329e-014 1.11319e-014
lhumerus -41.2493 -5.55976 87.3553
lradius 46.4098
lwrist 40.0016
lhand -15.8303 -14.8573
lfingers 7.12502
lthumb 10.3638 14.8673
rfemur -35.9758 -10.0298 30.2573
rtibia 40.3972
rfoot -21.1914 -2.59667
rtoes -4.24366
lfemur -16.1153 3.46803 -26.8406
ltibia 40.472
lfoot -13.434 -34.8503
ltoes -45.52
1684
root -7.96029 15.4472 44.1476 552.606 -113.393 -535.492
lowerback -4.56197 -0.920559 6.08235
upperback -9.48549 -1.46182 1.27005
thorax -7.53335 -1.24229 -2.00603
lowerneck 17.3565 -9.72249 -33.3594
upperneck 0.132126 -21.0755 35.5488
head 5.15701 -12.3421 17.5943
rclavicle 1.83876e-014 -2.38542e-015
rhumerus -41.7951 -22.3282 -65.3501
rradius 27.1314
rwrist 25.4135
rhand -5.8913 5.03158
rfingers 7.12502
rthumb 19.9368 -23.9657
lclavicle 1.83876e-014 -2.38542e-015
lhumerus -41.5069 -5.14734 87.0724
lradius 46.5434
lwrist 39.9665
lhand -15.8166 -14.9146
lfingers 7.12502
lthumb 10.3771 14.8094
rfemur -35.7566 -10.0519 30.2826
rtibia 40.0848
rfoot -21.1395 -2.44541
rtoes -4.5666
lfemur -16.5305 3.58617 -26.0619
ltibia 41.334
lfoot -14.9505 -33.3458
ltoes -46.0045
1685
root -7.96415 15.4599 44.1837 552.926 -113.196 -535.801
lowerback -4.48085 -0.829762 6.28679
upperback -9.52888 -1.33523 1.24969
thorax -7.62699 -1.19923 -2.14075
lowerneck 17.3455 -9.73631 -33.3418
upperneck 0.0797296 -21.069 35.5214
head 5.13465 -12.3343 17.5742
rclavicle 4.96962e-016 -6.36111e-015
rhumerus -41.8468 -22.5543 -65.3773
rradius 26.6815
rwrist 26.2628
rhand -5.63597 5.12765
rfingers 7.12502
rthumb 20.1823 -23.8439
lclavicle 4.96962e-016 -6.36111e-015
lhumerus -41.7898 -4.7285 86.7819
lradius 46.6377
lwrist 39.9583
lhand -15.7594 -14.9117
lfingers 7.12502
lthumb 10.4322 14.8095
rfemur -35.5482 -10.011 30.293
rtibia 39.7458
rfoot -21.0562 -2.3763
rtoes -4.99756
lfemur -16.9926 3.66366 -25.3012
ltibia 42.1315
lfoot -16.2586 -31.6635
ltoes -46.3815
1686
root -7.96839 15.473 44.22 553.227 -112.969 -536.082
lowerback -4.39744 -0.723932 6.48901
upperback -9.57226 -1.18833 1.21895
thorax -7.71956 -1.14665 -2.28616
lowerneck 17.3426 -9.75728 -33.3191
upperneck -0.00234324 -21.0693 35.5097
head 5.10723 -12.3312 17.5592
rclavicle -4.33351e-014 2.14687e-014
rhumerus -41.897 -22.7208 -65.4411
rradius 26.2868
rwrist 27.0096
rhand -5.39615 5.20744
rfingers 7.12502
rthumb 20.4127 -23.7396
lclavicle -4.33351e-014 2.14687e-014
lhumerus -42.0842 -4.33198 86.5039
lradius 46.6761
lwrist 39.9731
lhand -15.6647 -14.8969
lfingers 7.12502
lthumb 10.5236 14.8197
rfemur -35.3382 -9.96943 30.2958
rtibia 39.3889
rfoot -20.9589 -2.30423
rtoes -5.47251
lfemur -17.4709 3.71202 -24.5697
ltibia 42.8553
lfoot -17.3656 -29.837
ltoes -46.6435
1687
root -7.97339 15.4869 44.2562 553.517 -112.709 -536.346
lowerback -4.3193 -0.604016 6.68276
upperback -9.61064 -1.02298 1.17974
thorax -7.80071 -1.08449 -2.43711
lowerneck 17.3423 -9.78318 -33.2954
upperneck -0.116154 -21.0738 35.5255
head 5.07662 -12.3319 17.5563
rclavicle 8.74653e-014 3.49861e-014
rhumerus -41.9346 -22.8488 -65.5449
rradius 25.941
rwrist 27.6663
rhand -5.1843 5.26776
rfingers 7.12502
rthumb 20.6163 -23.6574
lclavicle 8.74653e-014 3.49861e-014
lhumerus -42.3793 -3.95275 86.2309
lradius 46.6536
lwrist 40.0242
lhand -15.4873 -14.8632
lfingers 7.12502
lthumb 10.6947 14.8446
rfemur -35.1207 -9.85927 30.2758
rtibia 39.0182
rfoot -20.8379 -2.27723
rtoes -5.91139
lfemur -17.9619 3.73558 -23.8647
ltibia 43.4955
lfoot -18.2812 -27.9082
ltoes -46.7698
